<svg width="14" height="13" viewBox="0 0 14 13" fill="none" xmlns="http://www.w3.org/2000/svg">
<path d="M6.8195 0.690772C6.89194 0.538948 7.10806 0.538948 7.1805 0.690772L8.96936 4.43961C8.99851 4.50071 9.0566 4.54291 9.12372 4.55176L13.2419 5.0946C13.4086 5.11659 13.4754 5.32212 13.3534 5.43794L10.3408 8.2977C10.2917 8.34431 10.2696 8.41259 10.2819 8.47916L11.0382 12.5635C11.0688 12.7289 10.894 12.8559 10.7461 12.7757L7.0954 10.7943C7.0359 10.762 6.9641 10.762 6.9046 10.7943L3.25388 12.7757C3.10603 12.8559 2.93119 12.7289 2.96182 12.5635L3.71811 8.47916C3.73044 8.41259 3.70825 8.34431 3.65915 8.2977L0.646581 5.43794C0.524575 5.32212 0.591357 5.11659 0.758138 5.0946L4.87628 4.55176C4.9434 4.54291 5.00149 4.50071 5.03064 4.4396L6.8195 0.690772Z" fill="#FFBE9F"/>
</svg>
