<svg width="130" height="130" viewBox="0 0 130 130" fill="none" xmlns="http://www.w3.org/2000/svg">
<g clip-path="url(#clip0_724_51)">
<path d="M50.6026 128.388C51.3006 128.543 52.0317 128.415 52.6355 128.032C53.2393 127.649 53.6665 127.042 53.8234 126.345C53.9803 125.647 53.8541 124.915 53.4724 124.311C53.0908 123.706 52.4848 123.277 51.7875 123.119C39.1662 120.247 27.8235 113.342 19.4754 103.449C11.1273 93.5555 6.22797 81.2126 5.51861 68.2869C4.80926 55.3613 8.32845 42.5562 15.5438 31.8089C22.7592 21.0616 33.2781 12.9567 45.5094 8.72038C57.7406 4.48407 71.0187 4.3468 83.3349 8.32934C95.6511 12.3119 106.335 20.1976 113.771 30.7934C121.207 41.3893 124.99 54.1189 124.548 67.0564C124.106 79.9939 119.463 92.4356 111.321 102.499C111.097 102.774 110.929 103.091 110.827 103.431C110.725 103.771 110.691 104.128 110.727 104.481C110.763 104.834 110.868 105.177 111.037 105.489C111.205 105.802 111.434 106.078 111.709 106.302C111.985 106.526 112.302 106.693 112.642 106.794C112.982 106.896 113.339 106.929 113.692 106.892C114.045 106.856 114.388 106.749 114.7 106.58C115.012 106.411 115.288 106.182 115.511 105.906C124.399 94.9287 129.47 81.3549 129.956 67.2385C130.442 53.1221 126.317 39.2315 118.206 27.6685C110.094 16.1056 98.4377 7.4997 84.9995 3.15309C71.5613 -1.19353 57.0731 -1.04429 43.7273 3.57821C30.3815 8.20072 18.9044 17.0449 11.0328 28.7725C3.16123 40.5 -0.676497 54.4727 0.100398 68.5761C0.877293 82.6794 6.22653 96.1459 15.3386 106.938C24.4507 117.73 36.8298 125.259 50.6026 128.388Z" fill="#003E52"/>
<path d="M96.3257 121.965C96.6373 121.793 96.9122 121.562 97.1345 121.284C97.3568 121.007 97.5223 120.688 97.6215 120.346C97.7206 120.005 97.7516 119.647 97.7125 119.293C97.6734 118.94 97.565 118.598 97.3936 118.286C97.2222 117.974 96.9911 117.699 96.7135 117.477C96.4359 117.255 96.1172 117.089 95.7756 116.99C95.4341 116.891 95.0763 116.86 94.7228 116.899C94.3693 116.938 94.0269 117.046 93.7153 117.218L93.6116 117.275L93.5089 117.331L93.4065 117.387L93.3026 117.443L93.1986 117.499L93.0941 117.555L92.991 117.61L92.8872 117.665L92.783 117.72L92.6803 117.774L92.5758 117.829L92.4712 117.883L92.3661 117.938L92.2623 117.991L92.1587 118.044L92.0528 118.098L91.9482 118.152L91.844 118.204L91.7393 118.257L91.6339 118.31L91.5289 118.362L91.4244 118.414L91.3188 118.466L91.2131 118.518L91.1082 118.569L91.0025 118.621L90.8964 118.672L90.7907 118.723L90.6856 118.773L90.5793 118.824L90.4735 118.874L90.3678 118.924L90.2614 118.974L90.1549 119.024L90.0486 119.073L89.9428 119.122L89.8355 119.171L89.7296 119.22L89.6234 119.268L89.5159 119.317L89.4088 119.365L89.3015 119.413L89.1951 119.46L89.0886 119.507L89.0723 119.515C88.747 119.658 88.4532 119.865 88.2076 120.122C87.962 120.379 87.7695 120.682 87.6411 121.014C87.5127 121.346 87.4508 121.7 87.4591 122.055C87.4674 122.411 87.5456 122.761 87.6893 123.087C87.8331 123.412 88.0394 123.706 88.2967 123.951C88.554 124.197 88.8571 124.39 89.1888 124.518C89.5205 124.646 89.8742 124.708 90.2298 124.7C90.5853 124.692 90.9358 124.613 91.2611 124.47L91.2774 124.463L91.3948 124.411L91.5121 124.358L91.6283 124.306L91.7445 124.254L91.8602 124.202L91.9772 124.148L92.0939 124.095L92.2094 124.042L92.326 123.988L92.4421 123.934L92.5575 123.88L92.673 123.826L92.7894 123.771L92.905 123.716L93.0201 123.661L93.136 123.606L93.2514 123.55L93.3662 123.495L93.481 123.439L93.5965 123.383L93.711 123.326L93.8255 123.27L93.9407 123.213L94.0554 123.155L94.1696 123.098L94.2841 123.041L94.3989 122.983L94.5131 122.924L94.626 122.867L94.7409 122.808L94.8553 122.749L94.9682 122.69L95.0816 122.631L95.1948 122.572L95.3096 122.512L95.4227 122.452L95.536 122.392L95.6496 122.331L95.7619 122.271L95.8744 122.21L95.9869 122.149L96.1006 122.088L96.2136 122.026L96.3257 121.965ZM58.7016 124.26C58.3479 124.223 57.9903 124.256 57.6493 124.357C57.3083 124.458 56.9906 124.625 56.7142 124.849C56.1562 125.302 55.8006 125.957 55.7257 126.672C55.6886 127.025 55.7216 127.383 55.8227 127.724C55.9238 128.065 56.0911 128.383 56.315 128.659C56.7672 129.217 57.4226 129.573 58.137 129.648C59.9944 129.841 61.8472 129.962 63.7144 129.998L63.7737 130C64.1294 130.006 64.4829 129.943 64.8141 129.813C65.1453 129.683 65.4476 129.489 65.7038 129.242C65.96 128.995 66.1651 128.7 66.3073 128.374C66.4495 128.048 66.5261 127.697 66.5327 127.342C66.5392 126.986 66.4757 126.632 66.3456 126.301C66.2155 125.97 66.0215 125.668 65.7746 125.412C65.5277 125.155 65.2328 124.951 64.9066 124.808C64.5805 124.666 64.2296 124.59 63.8739 124.583C62.1363 124.546 60.4303 124.44 58.7016 124.26ZM74.1997 123.879C73.8482 123.934 73.5109 124.058 73.2071 124.243C72.9034 124.428 72.6391 124.672 72.4294 124.959C72.2197 125.246 72.0687 125.572 71.9849 125.918C71.9012 126.264 71.8864 126.623 71.9415 126.974C71.9965 127.326 72.1202 127.663 72.3056 127.967C72.491 128.271 72.7344 128.535 73.0219 128.744C73.3094 128.954 73.6353 129.105 73.9812 129.188C74.327 129.272 74.6859 129.287 75.0373 129.231L75.0602 129.228L75.1864 129.208L75.3128 129.188L75.4379 129.168L75.564 129.147L75.6899 129.126L75.816 129.105L75.941 129.084L76.0668 129.062L76.1927 129.04L76.3175 129.018L76.4433 128.996L76.569 128.973L76.6945 128.951L76.8192 128.928L76.945 128.904L77.0705 128.881L77.1949 128.857L77.3203 128.833L77.4456 128.809L77.5699 128.784L77.6954 128.759L77.8206 128.734L77.9445 128.709L78.0697 128.684L78.195 128.658L78.3189 128.632L78.4437 128.606L78.5686 128.579L78.6927 128.553L78.8175 128.526L78.9423 128.498L79.0659 128.471L79.1906 128.443L79.3152 128.415L79.4397 128.387L79.5632 128.359L79.6866 128.33L79.8122 128.301L79.9355 128.272L80.0584 128.243L80.184 128.213L80.3069 128.183L80.4301 128.153L80.5543 128.123L80.5805 128.116C81.2776 127.943 81.8774 127.5 82.2478 126.884C82.6182 126.269 82.729 125.531 82.5557 124.834C82.3825 124.137 81.9394 123.537 81.3239 123.167C80.7085 122.796 79.9711 122.686 79.274 122.859L79.2583 122.863L79.1456 122.891L79.0314 122.918L78.9172 122.946L78.8053 122.972L78.6907 123L78.5765 123.027L78.4644 123.053L78.3499 123.079L78.2354 123.105L78.1218 123.131L78.0083 123.157L77.8946 123.182L77.78 123.207L77.6662 123.232L77.5526 123.257L77.4379 123.281L77.324 123.305L77.2098 123.329L77.0948 123.353L76.981 123.377L76.8669 123.4L76.7515 123.423L76.6374 123.446L76.5234 123.469L76.408 123.491L76.2936 123.514L76.1792 123.536L76.0637 123.558L75.9494 123.579L75.835 123.6L75.7193 123.622L75.6046 123.643L75.4899 123.663L75.3752 123.684L75.2595 123.704L75.1448 123.724L75.0298 123.744L74.914 123.763L74.7991 123.782L74.684 123.802L74.5691 123.82L74.453 123.839L74.338 123.858L74.2227 123.876L74.1997 123.879Z" fill="#003E52"/>
<path d="M119.806 110.585C120.524 110.585 121.213 110.3 121.721 109.792C122.229 109.284 122.515 108.595 122.515 107.876C122.515 107.158 122.229 106.469 121.721 105.961C121.213 105.453 120.524 105.168 119.806 105.168H112.147V97.5082C112.147 96.7898 111.862 96.1009 111.354 95.5929C110.846 95.0849 110.157 94.7996 109.439 94.7996C108.721 94.7996 108.032 95.0849 107.524 95.5929C107.016 96.1009 106.73 96.7898 106.73 97.5082V107.876C106.73 108.595 107.016 109.284 107.524 109.792C108.032 110.3 108.721 110.585 109.439 110.585H119.806Z" fill="#003E52"/>
<path d="M32.7574 79.9483C33.0183 80.4177 33.455 80.7641 33.9714 80.9114C34.4878 81.0587 35.0415 80.9949 35.5108 80.7339C35.9801 80.4729 36.3265 80.0362 36.4738 79.5198C36.6211 79.0034 36.5572 78.4496 36.2963 77.9803C33.5302 73.0216 32.0957 67.4309 32.1328 61.7529C32.1698 56.0749 33.677 50.5033 36.5076 45.5811C39.3382 40.659 43.3955 36.5542 48.2843 33.6667C53.173 30.7792 58.7263 29.2076 64.403 29.1049C70.0797 29.0023 75.6862 30.3722 80.676 33.0811C85.6659 35.79 89.8689 39.7455 92.8755 44.5621C95.8821 49.3788 97.5898 54.8922 97.832 60.5652C98.0742 66.2381 96.8427 71.8771 94.2576 76.9325C94.0135 77.4123 93.9699 77.9695 94.1366 78.4815C94.3032 78.9934 94.6664 79.4182 95.1462 79.6623C95.6261 79.9065 96.1832 79.95 96.6951 79.7833C97.207 79.6166 97.6317 79.2534 97.8759 78.7736C100.772 73.0969 102.149 66.7669 101.873 60.4C101.596 54.0331 99.6763 47.8462 96.2994 42.4418C92.9225 37.0373 88.2038 32.5994 82.6028 29.5602C77.0017 26.521 70.7092 24.9841 64.3379 25.099C57.9666 25.214 51.7336 26.9769 46.2458 30.2161C40.758 33.4554 36.2024 38.0606 33.0226 43.5833C29.8428 49.1061 28.1471 55.3582 28.1006 61.7309C28.0541 68.1036 29.6584 74.3798 32.7574 79.9483Z" fill="#003E52"/>
<path d="M66.3549 37.4142C66.3555 37.2359 66.3209 37.0593 66.2532 36.8945C66.1854 36.7296 66.0857 36.5798 65.9599 36.4535C65.8341 36.3273 65.6846 36.2271 65.52 36.1587C65.3554 36.0904 65.1789 36.0552 65.0007 36.0552C64.8225 36.0552 64.646 36.0904 64.4814 36.1587C64.3168 36.2271 64.1673 36.3273 64.0415 36.4535C63.9157 36.5798 63.816 36.7296 63.7482 36.8945C63.6805 37.0593 63.6459 37.2359 63.6465 37.4142V64.4989C63.6459 64.6772 63.6805 64.8538 63.7482 65.0186C63.816 65.1835 63.9157 65.3333 64.0415 65.4596C64.1673 65.5859 64.3168 65.686 64.4814 65.7544C64.646 65.8227 64.8225 65.8579 65.0007 65.8579C65.1789 65.8579 65.3554 65.8227 65.52 65.7544C65.6846 65.686 65.8341 65.5859 65.9599 65.4596C66.0857 65.3333 66.1854 65.1835 66.2532 65.0186C66.3209 64.8538 66.3555 64.6772 66.3549 64.4989V37.4142Z" fill="#003E52"/>
<path d="M43.1831 60.647C43.0049 60.6464 42.8283 60.6809 42.6634 60.7487C42.4986 60.8165 42.3488 60.9162 42.2225 61.042C42.0963 61.1678 41.9961 61.3173 41.9278 61.4819C41.8594 61.6466 41.8242 61.8231 41.8242 62.0013C41.8242 62.1795 41.8594 62.356 41.9278 62.5207C41.9961 62.6853 42.0963 62.8348 42.2225 62.9606C42.3488 63.0864 42.4986 63.1861 42.6634 63.2539C42.8283 63.3217 43.0049 63.3562 43.1831 63.3556H66.9253C67.2837 63.3544 67.6269 63.2111 67.8799 62.9573C68.1328 62.7034 68.2748 62.3597 68.2748 62.0013C68.2748 61.6429 68.1328 61.2992 67.8799 61.0453C67.6269 60.7915 67.2837 60.6482 66.9253 60.647H43.1831Z" fill="#003E52"/>
<path d="M65.0001 63.9273C66.0637 63.9273 66.926 63.0649 66.926 62.0012C66.926 60.9375 66.0637 60.0752 65.0001 60.0752C63.9365 60.0752 63.0742 60.9375 63.0742 62.0012C63.0742 63.0649 63.9365 63.9273 65.0001 63.9273Z" fill="#003E52"/>
<path d="M53.8903 98.6906V102.925H37.916C38.0949 101.312 38.6279 99.7585 39.4769 98.3752C40.9359 96.266 42.6563 94.3501 44.5969 92.6734C45.9661 91.4869 47.2309 90.185 48.3773 88.7819C48.9623 87.9667 49.29 86.9951 49.3183 85.992C49.3464 85.5667 49.2883 85.14 49.1475 84.7377C49.0068 84.3353 48.7862 83.9655 48.4991 83.6505C47.8632 83.1148 47.0567 82.8242 46.2253 82.8313C45.3939 82.8384 44.5925 83.1427 43.9659 83.6892C43.319 84.4991 42.9745 85.5092 42.9916 86.5456L38.4529 86.0917C38.4822 85.0643 38.7234 84.054 39.1616 83.1243C39.5997 82.1946 40.2253 81.3654 40.999 80.6889C42.5491 79.5583 44.4341 78.9813 46.3514 79.0504C48.3719 78.9364 50.3568 79.6179 51.8811 80.949C52.5319 81.5484 53.0476 82.2795 53.394 83.0936C53.7404 83.9077 53.9096 84.7863 53.8903 85.6708C53.8937 86.7167 53.6984 87.7536 53.3147 88.7265C52.8569 89.8217 52.2435 90.8453 51.4936 91.7655C50.5731 92.8469 49.576 93.8607 48.5102 94.7992C47.0711 96.1167 46.1578 96.9968 45.7759 97.4286C45.4236 97.8177 45.1103 98.2404 44.8405 98.6907L53.8903 98.6906ZM65.9072 102.925V98.1426H56.1764V94.1513L66.4939 79.0503H70.3186V94.1347H73.2689V98.1426H70.3186V102.925L65.9072 102.925ZM65.9072 94.1348V86.0086L60.4439 94.1348H65.9072ZM80.9571 79.1501V87.8907C81.8968 86.7067 83.2032 85.8684 84.671 85.5077C86.1388 85.147 87.6849 85.2843 89.0663 85.898C89.8213 86.2173 90.4783 86.7311 90.9702 87.387C91.396 87.9921 91.6937 88.6778 91.8448 89.4022C92.0354 90.532 92.1151 91.6777 92.0828 92.8231V102.925H87.5274V93.8249C87.5876 92.6726 87.5002 91.5174 87.2672 90.3873C87.0977 89.9104 86.7744 89.5035 86.3484 89.2304C85.8551 88.9271 85.2831 88.7768 84.7045 88.7985C83.9901 88.7855 83.2871 88.9776 82.6786 89.3521C82.0638 89.7375 81.602 90.3245 81.3723 91.0128C81.0508 92.0759 80.9105 93.1856 80.9571 94.2953V102.925H76.4017V79.1501H80.9571Z" fill="#003E52"/>
</g>
<defs>
<clipPath id="clip0_724_51">
<rect width="130" height="130" fill="white"/>
</clipPath>
</defs>
</svg>
