<svg width="130" height="130" viewBox="0 0 130 130" fill="none" xmlns="http://www.w3.org/2000/svg">
<g clip-path="url(#clip0_724_42)">
<path d="M65.0008 18.9583C75.653 18.9581 85.9757 22.6515 94.21 29.409C102.444 36.1666 108.081 45.5703 110.159 56.0178C112.237 66.4653 110.629 77.3101 105.608 86.7046C100.586 96.0991 92.4629 103.462 82.6215 107.538C72.7802 111.615 61.8299 112.153 51.6364 109.061C41.4428 105.969 32.6368 99.4377 26.7187 90.5807C20.8006 81.7238 18.1367 71.0888 19.1808 60.4879C20.2248 49.887 24.9123 39.976 32.4446 32.4438C36.7152 28.1621 41.7898 24.7665 47.3769 22.4522C52.964 20.1379 58.9533 18.9505 65.0008 18.9583ZM93.7272 36.2736C87.0811 29.6273 78.3362 25.491 68.9824 24.5696C59.6285 23.6481 50.2446 25.9985 42.4294 31.2202C34.6143 36.442 28.8515 44.212 26.1229 53.2063C23.3944 62.2006 23.869 71.8628 27.4657 80.5465C31.0625 89.2302 37.559 96.3981 45.8482 100.829C54.1375 105.26 63.7066 106.679 72.9251 104.845C82.1436 103.012 90.4411 98.0386 96.4039 90.773C102.367 83.5074 105.626 74.3991 105.626 65C105.633 59.664 104.585 54.3792 102.543 49.4494C100.501 44.5196 97.5051 40.0419 93.7272 36.2736Z" fill="#003E52"/>
<path d="M64.9998 18.9583C72.383 18.9583 78.9191 24.3625 83.5176 33.0997C87.8409 41.3141 90.5152 52.5967 90.5152 64.9999C90.5152 77.4032 87.8409 88.6858 83.5176 96.9002C78.9191 105.637 72.383 111.042 64.9998 111.042C57.6165 111.042 51.0804 105.637 46.4819 96.9002C42.1586 88.6858 39.4844 77.4032 39.4844 64.9999C39.4844 52.5967 42.1586 41.3141 46.4819 33.0997C51.0804 24.3625 57.6165 18.9583 64.9998 18.9583ZM78.7358 35.6176C75.0799 28.6714 70.2122 24.3751 64.9998 24.3751C59.7873 24.3751 54.9196 28.6714 51.2636 35.6176C47.3328 43.0866 44.9012 53.4709 44.9012 64.9999C44.9012 76.529 47.3328 86.9133 51.2636 94.3823C54.9195 101.329 59.7872 105.625 64.9998 105.625C70.2123 105.625 75.0799 101.329 78.7358 94.3823C82.6668 86.9133 85.0983 76.529 85.0983 64.9999C85.0983 53.4709 82.6668 43.0867 78.7358 35.6176Z" fill="#003E52"/>
<path d="M67.7078 21.6667C67.7078 21.311 67.6378 20.9588 67.5017 20.6302C67.3656 20.3016 67.1661 20.003 66.9146 19.7515C66.6631 19.5 66.3645 19.3005 66.0359 19.1644C65.7073 19.0283 65.3551 18.9583 64.9994 18.9583C64.6437 18.9583 64.2916 19.0283 63.963 19.1644C63.6344 19.3005 63.3358 19.5 63.0843 19.7515C62.8328 20.003 62.6333 20.3016 62.4972 20.6302C62.3611 20.9588 62.291 21.311 62.291 21.6667V108.333C62.291 109.052 62.5764 109.741 63.0843 110.249C63.5922 110.756 64.2811 111.042 64.9994 111.042C65.7177 111.042 66.4066 110.756 66.9146 110.249C67.4225 109.741 67.7078 109.052 67.7078 108.333V21.6667Z" fill="#003E52"/>
<path d="M21.6674 62.2915C20.9491 62.2915 20.2602 62.5769 19.7523 63.0848C19.2443 63.5927 18.959 64.2816 18.959 64.9999C18.959 65.7182 19.2443 66.4071 19.7523 66.915C20.2602 67.423 20.9491 67.7083 21.6674 67.7083H108.334C109.052 67.7083 109.741 67.423 110.249 66.915C110.757 66.4071 111.043 65.7182 111.043 64.9999C111.043 64.2816 110.757 63.5927 110.249 63.0848C109.741 62.5769 109.052 62.2915 108.334 62.2915H21.6674Z" fill="#003E52"/>
<path d="M95.1055 96.1526C95.4153 96.3256 95.7563 96.4359 96.1088 96.477C96.4613 96.5181 96.8185 96.4893 97.1599 96.3923C97.5013 96.2952 97.8201 96.1318 98.0983 95.9113C98.3764 95.6909 98.6084 95.4178 98.7809 95.1076C98.9533 94.7974 99.0629 94.4563 99.1034 94.1037C99.1439 93.7511 99.1144 93.394 99.0168 93.0528C98.9191 92.7116 98.7551 92.393 98.5341 92.1152C98.3132 91.8375 98.0396 91.606 97.7291 91.4341C92.9953 88.8876 87.926 87.021 82.6711 85.8896C71.0203 83.3196 58.9499 83.3144 47.2968 85.8744C42.0604 86.9956 37.0068 88.8445 32.2832 91.3672C31.6546 91.7124 31.189 92.293 30.9886 92.9815C30.7882 93.67 30.8695 94.4099 31.2147 95.0384C31.5598 95.6669 32.1405 96.1326 32.8289 96.333C33.5174 96.5333 34.2573 96.452 34.8858 96.1069C39.1641 93.8262 43.7405 92.1553 48.4818 91.1429C59.357 88.7805 70.6131 88.7857 81.4861 91.1582C86.2378 92.1756 90.8226 93.8569 95.1055 96.1526Z" fill="#003E52"/>
<path d="M97.7274 38.5657C98.0379 38.3938 98.3114 38.1623 98.5324 37.8846C98.7533 37.6069 98.9174 37.2883 99.0151 36.9471C99.1127 36.6059 99.1422 36.2488 99.1017 35.8962C99.0612 35.5436 98.9516 35.2024 98.7791 34.8922C98.6067 34.5821 98.3747 34.3089 98.0966 34.0885C97.8184 33.868 97.4995 33.7046 97.1582 33.6076C96.8168 33.5105 96.4596 33.4817 96.1071 33.5228C95.7546 33.564 95.4136 33.6742 95.1038 33.8472C90.8209 36.1429 86.2361 37.8242 81.4844 38.8416C76.055 40.0438 70.5092 40.6418 64.9483 40.6248C59.4107 40.6417 53.888 40.0489 48.4801 38.8569C43.7388 37.8445 39.1624 36.1737 34.8841 33.893C34.2557 33.5491 33.5165 33.4688 32.8289 33.6695C32.1413 33.8702 31.5614 34.3356 31.2166 34.9634C30.8718 35.5913 30.7903 36.3304 30.9899 37.0183C31.1896 37.7063 31.6541 38.2868 32.2814 38.6326C37.0051 41.1554 42.0587 43.0043 47.2951 44.1256C53.0913 45.4105 59.0114 46.0531 64.9483 46.0417C70.9085 46.0534 76.8517 45.4056 82.6695 44.1103C87.9244 42.9789 92.9936 41.1123 97.7274 38.5657Z" fill="#003E52"/>
<path d="M64.9999 130C65.7182 130 66.4071 129.715 66.9151 129.207C67.423 128.699 67.7083 128.01 67.7083 127.292C67.7083 126.573 67.423 125.884 66.9151 125.377C66.4071 124.869 65.7182 124.583 64.9999 124.583C51.4905 124.578 38.3843 119.98 27.8327 111.544C17.2811 103.108 9.911 91.335 6.93228 78.1581C3.95356 64.9812 5.54319 51.1831 11.4402 39.0287C17.3373 26.8744 27.1913 17.086 39.3848 11.2703C51.5784 5.45466 65.3868 3.95731 78.5435 7.02406C91.7002 10.0908 103.423 17.5394 111.789 28.1472C120.154 38.755 124.664 51.8917 124.579 65.4008C124.494 78.9099 119.819 91.9888 111.321 102.491C111.097 102.766 110.929 103.082 110.827 103.422C110.724 103.762 110.691 104.119 110.727 104.472C110.763 104.825 110.868 105.168 111.037 105.48C111.205 105.793 111.434 106.069 111.709 106.293C111.985 106.517 112.302 106.684 112.642 106.786C112.982 106.887 113.339 106.92 113.692 106.883C114.045 106.847 114.387 106.741 114.699 106.571C115.012 106.402 115.287 106.173 115.511 105.897C124.785 94.4374 129.888 80.1647 129.981 65.4223C130.074 50.68 125.151 36.3441 116.022 24.7685C106.892 13.1928 94.0979 5.06536 79.7397 1.72047C65.3815 -1.62443 50.3127 0.0120503 37.0073 6.36121C23.7019 12.7104 12.9506 23.3949 6.51877 36.6605C0.0868998 49.9261 -1.64336 64.9845 1.61208 79.3632C4.86752 93.742 12.9152 106.587 24.4338 115.788C35.9523 124.99 50.2573 130.001 64.9999 130Z" fill="#003E52"/>
<path d="M119.806 110.576C120.524 110.576 121.213 110.29 121.721 109.782C122.229 109.274 122.515 108.585 122.515 107.867C122.515 107.149 122.229 106.46 121.721 105.952C121.213 105.444 120.524 105.159 119.806 105.159H112.147V97.4999C112.147 96.7816 111.862 96.0927 111.354 95.5848C110.846 95.0769 110.157 94.7915 109.439 94.7915C108.721 94.7915 108.032 95.0769 107.524 95.5848C107.016 96.0927 106.73 96.7816 106.73 97.4999V107.867C106.73 108.585 107.016 109.274 107.524 109.782C108.032 110.29 108.721 110.576 109.439 110.576H119.806Z" fill="#003E52"/>
</g>
<defs>
<clipPath id="clip0_724_42">
<rect width="130" height="130" fill="white"/>
</clipPath>
</defs>
</svg>
