<svg width="130" height="130" viewBox="0 0 130 130" fill="none" xmlns="http://www.w3.org/2000/svg">
<g clip-path="url(#clip0_724_60)">
<path d="M79.3621 23.6331C82.1925 22.5554 84.8505 21.0137 87.2414 19.0626C89.228 22.5938 90.4552 26.5567 90.8335 30.662H80.2589C80.1279 28.2979 79.828 25.948 79.3621 23.6331ZM96.1543 33.4495L96.154 33.3554C96.1315 24.9037 93.1302 16.7743 87.7534 10.6014C82.3765 4.42846 75.0226 0.669592 67.1699 0.0803336L67.1625 0.0719583L66.9358 0.0636527C66.4515 0.0318264 65.9644 0.0118496 65.4746 0.00372238L65.4316 0.00302443H65.3722L65.3426 0.00232649L65.313 0.00146569C65.219 0.000697947 65.1255 0 65.0316 0H64.925L64.895 0.000697947H64.806C64.2217 0.00449788 63.6415 0.0254828 63.0652 0.0636527L62.8372 0.0719583L62.8297 0.0803336C54.9654 0.670579 47.6019 4.43974 42.2234 10.6281C36.8448 16.8165 33.8511 24.9639 33.8457 33.4282V33.4494L96.1543 33.4495ZM42.7586 19.0634C45.1493 21.0145 47.8072 22.556 50.6376 23.6331C50.1718 25.948 49.872 28.2979 49.7408 30.662H39.1665C39.5445 26.5569 40.7717 22.5942 42.7586 19.0634ZM52.0394 18.2606C49.8366 17.335 47.7419 16.1364 45.7979 14.6893C46.0722 14.3656 46.3535 14.0487 46.642 13.7387C49.6782 10.4744 53.422 8.07085 57.5371 6.74388C55.675 9.58222 54.1158 12.6362 52.8888 15.8484C52.5856 16.642 52.3024 17.4461 52.0394 18.2606ZM84.0151 14.471C82.129 15.9611 80.0955 17.2231 77.9515 18.2341C77.6909 17.429 77.4107 16.6338 77.1109 15.8484C75.8836 12.6363 74.3242 9.58231 72.4621 6.74388C76.5775 8.07074 80.3215 10.4743 83.358 13.7387C83.5811 13.9791 83.8002 14.2232 84.0151 14.471ZM62.404 25.899V30.662H54.9421C55.0583 28.7896 55.294 26.9279 55.6477 25.0901C57.8779 25.5405 60.1363 25.8109 62.404 25.899ZM62.404 9.00749V20.321C60.6087 20.2447 58.8199 20.0432 57.0489 19.7176C57.2455 19.1248 57.4544 18.5391 57.6755 17.9604C58.8933 14.7737 60.4821 11.7655 62.404 9.00749ZM67.5964 20.3211V9.00816C69.5177 11.7662 71.1061 14.7742 72.3238 17.9605C72.5451 18.5397 72.754 19.1254 72.9504 19.7177C71.1798 20.0433 69.3913 20.2448 67.5964 20.3211ZM67.5964 30.662V25.899C69.8639 25.8108 72.1221 25.5405 74.352 25.0901C74.7056 26.9279 74.9414 28.7896 75.0576 30.662H67.5964ZM79.3621 43.2658C82.1925 44.3435 84.8505 45.8852 87.2414 47.8363C89.2281 44.3051 90.4553 40.3422 90.8335 36.2369H80.2589C80.1279 38.601 79.8281 40.9509 79.3621 43.2658ZM96.1543 33.4495L96.154 33.5435C96.1373 39.1937 94.789 44.7474 92.2347 49.6875C89.6805 54.6275 86.0033 58.7931 81.5457 61.7963C80.8895 60.8091 80.1583 59.8818 79.3597 59.024C78.9014 58.532 78.4246 58.0663 77.9292 57.6269C79.9138 56.4006 81.7391 54.8988 83.3581 53.1603C83.5812 52.9207 83.8002 52.6766 84.0151 52.4279C82.129 50.9378 80.0955 49.6758 77.9514 48.6649C77.6909 49.4699 77.4107 50.2654 77.1109 51.0513C76.5254 52.5843 75.8635 54.0824 75.1282 55.5391C73.6179 54.6046 72.0012 53.8839 70.3185 53.3952C71.0708 51.9548 71.7405 50.4665 72.3238 48.9384C72.5451 48.3593 72.7539 47.7735 72.9504 47.1813C71.1798 46.8555 69.3913 46.6542 67.5963 46.5785V52.8153C65.8725 52.5788 64.1278 52.5788 62.404 52.8153V46.5786C60.6086 46.6543 58.8198 46.8556 57.0488 47.1813C57.2455 47.7741 57.4544 48.3598 57.6755 48.9385C58.259 50.4665 58.9288 51.9548 59.6811 53.3952C57.9985 53.8846 56.3818 54.6054 54.8714 55.5398C54.1361 54.0828 53.4743 52.5845 52.8887 51.0512C52.5855 50.2575 52.3023 49.4532 52.0393 48.6383C49.8364 49.5639 47.7418 50.7625 45.7977 52.2096C46.0721 52.5341 46.3534 52.851 46.6419 53.1602C48.2608 54.8989 50.0861 56.4007 52.0708 57.6268C51.5762 58.0665 51.0993 58.5325 50.6403 59.0248C49.8415 59.8821 49.1103 60.8091 48.4543 61.7963C43.987 58.7865 40.3036 54.6094 37.7487 49.6556C35.1939 44.7018 33.851 39.1332 33.8457 33.4707V33.4494L96.1543 33.4495ZM42.7586 47.8363C45.1495 45.8852 47.8073 44.3435 50.6376 43.2658C50.1718 40.9509 49.872 38.601 49.7409 36.2369H39.1665C39.5444 40.3423 40.7716 44.3053 42.7586 47.8363ZM62.404 41.0007V36.2369H54.9421C55.0582 38.1094 55.294 39.9711 55.6477 41.8088C57.8778 41.3583 60.1363 41.0882 62.404 41.0007ZM67.5964 36.2369V41.0007C69.8639 41.0882 72.1221 41.3584 74.352 41.8089C74.7057 39.9711 74.9415 38.1094 75.0576 36.2369H67.5964Z" fill="#003E52"/>
<path d="M64.9987 55.546C67.3106 55.5314 69.6024 56.0068 71.7429 56.9449C73.8834 57.883 75.8304 59.2654 77.4723 61.0129C79.1143 62.7603 80.419 64.8385 81.3116 67.1283C82.2042 69.4181 82.6672 71.8745 82.674 74.3568C82.6808 76.839 82.2314 79.2983 81.3514 81.5938C80.4714 83.8892 79.1782 85.9756 77.5458 87.7334C75.9135 89.4913 73.9741 90.886 71.8388 91.8377C69.7036 92.7893 67.4144 93.2792 65.1024 93.2793C60.4175 93.2802 55.9221 91.2933 52.5954 87.7516C50.1313 85.1178 48.4512 81.7578 47.768 78.0975C47.0848 74.4372 47.4294 70.6415 48.758 67.1917C50.0866 63.7419 52.3394 60.7935 55.2308 58.7201C58.1222 56.6468 61.5218 55.5421 64.9987 55.546ZM73.3891 65.4337C71.7297 63.6518 69.6154 62.4383 67.3136 61.9466C65.0118 61.455 62.6258 61.7073 60.4576 62.6716C58.2893 63.636 56.4361 65.269 55.1323 67.3643C53.8286 69.4595 53.1328 71.9228 53.133 74.4427C53.1325 76.1097 53.4412 77.7603 54.041 79.2979C54.6409 80.8356 55.52 82.2296 56.6269 83.3986C58.8837 85.7921 61.9302 87.1309 65.1024 87.1231C66.653 87.1304 68.1895 86.8071 69.6228 86.1718C71.0561 85.5365 72.3576 84.6019 73.4518 83.4223C74.546 82.2426 75.4111 80.8414 75.9969 79.2999C76.5827 77.7585 76.8775 76.1074 76.8643 74.4426C76.8664 72.7692 76.5605 71.1118 75.9641 69.5658C75.3677 68.0197 74.4926 66.6155 73.3891 65.4337Z" fill="#003E52"/>
<path d="M81.1534 97.5436L68.0083 122.165L67.3023 123.628L67.0498 124.151C74.3718 123.81 81.4556 121.258 87.4878 116.789C87.6261 112.951 87.2051 109.113 86.2401 105.414C85.2578 102.334 83.4965 99.6093 81.1534 97.5436ZM59.1663 96.2511C58.7449 95.0695 58.4921 93.8264 58.4166 92.5638L58.233 88.6665L61.7601 89.6103C62.3413 89.7657 62.9096 89.9014 63.4286 89.9886C63.9472 90.0757 64.4714 90.1193 64.9963 90.119C65.5188 90.1195 66.0404 90.0759 66.5565 89.9886C67.0677 89.9022 67.6336 89.7657 68.2168 89.6103L71.7294 88.6725L71.5598 92.5524C71.4759 93.7875 71.2065 94.9999 70.762 96.1426C70.564 96.6571 70.3225 97.1509 70.0404 97.6179L71.1121 104.666L77.9906 91.7828L79.4471 89.0545L81.8629 90.8284C86.2916 93.788 89.6434 98.2858 91.3613 103.574C92.6095 108.346 93.1252 113.305 92.8878 118.255L92.8875 119.691L91.8192 120.561C84.0459 126.693 74.6519 130 65.0059 130C55.36 130 45.9661 126.693 38.1929 120.56L37.1138 119.681V118.254C36.8712 113.192 37.4292 108.122 38.7642 103.259C40.5865 97.8784 44.0988 93.3477 48.6967 90.4472L51.14 88.743L52.5373 91.4804L58.9815 104.104L59.8796 97.7422C59.5949 97.2727 59.3558 96.7731 59.1663 96.2511ZM62.7348 124.139L62.4778 123.583L59.8467 117.878L49.2685 97.1571C46.7927 99.22 44.9176 102 43.8639 105.168C42.8413 108.943 42.3926 112.87 42.5351 116.797C48.5001 121.217 55.4961 123.759 62.7348 124.139ZM64.9843 100.367L63.3011 112.294L64.596 115.102L64.9734 115.841L66.7706 112.115L64.9843 100.367Z" fill="#003E52"/>
<path d="M91.5578 89.7468C92.1806 89.3688 92.9177 89.2715 93.6072 89.4764C94.2968 89.6813 94.8824 90.1715 95.2356 90.8396C95.5888 91.5077 95.6806 92.2989 95.491 93.0396C95.3014 93.7803 94.8457 94.4099 94.2241 94.7903L86.0929 99.7641C85.4699 100.144 84.7319 100.242 84.0413 100.038C83.3508 99.833 82.7642 99.3423 82.4106 98.6734C82.057 98.0045 81.9654 97.2121 82.1559 96.4707C82.3464 95.7292 82.8034 95.0994 83.4264 94.7198L91.5578 89.7468Z" fill="#003E52"/>
<path d="M35.2758 94.7902C34.6529 94.4106 34.1959 93.7809 34.0055 93.0396C33.815 92.2982 33.9066 91.506 34.2601 90.8372C34.6137 90.1684 35.2002 89.6778 35.8907 89.4733C36.5811 89.2688 37.319 89.3672 37.9419 89.7468L46.0732 94.7197C46.6962 95.0994 47.1532 95.7292 47.3437 96.4706C47.5342 97.2121 47.4426 98.0044 47.089 98.6733C46.7354 99.3422 46.1488 99.8329 45.4582 100.037C44.7677 100.242 44.0297 100.144 43.4067 99.764L35.2758 94.7902Z" fill="#003E52"/>
<path d="M110.085 44.5008C111.662 44.5016 113.223 44.8401 114.677 45.4964C116.131 46.1527 117.448 47.1137 118.552 48.3231C120.794 50.7593 122.049 54.0475 122.044 57.4723H122.033V57.5595C121.983 61.4281 120.729 65.1674 118.47 68.1817C117.479 69.6247 116.204 70.8147 114.735 71.6665C113.266 72.5184 111.64 73.0111 109.973 73.1092V73.0979H109.929C108.255 72.9916 106.625 72.4784 105.163 71.5971C103.7 70.7158 102.443 69.4894 101.486 68.0103C99.335 64.9798 98.1564 61.2824 98.127 57.4723C98.1221 54.0475 99.3772 50.7592 101.619 48.323C102.723 47.1135 104.04 46.1524 105.494 45.4961C106.947 44.8398 108.508 44.5015 110.085 44.5008ZM114.7 52.3894C114.097 51.7329 113.379 51.2116 112.587 50.8558C111.794 50.5 110.944 50.3168 110.086 50.3168C109.227 50.3168 108.377 50.5 107.584 50.8558C106.792 51.2116 106.074 51.7329 105.471 52.3894C104.229 53.7447 103.537 55.5716 103.544 57.4723C103.564 60.0094 104.349 62.4712 105.781 64.4891C106.241 65.258 106.854 65.9087 107.574 66.3953C108.295 66.8818 109.106 67.1923 109.951 67.3046H109.973V67.2933C110.83 67.1878 111.657 66.886 112.396 66.4083C113.135 65.9305 113.771 65.288 114.259 64.524C115.756 62.545 116.593 60.0855 116.637 57.5367L116.637 57.4723H116.627C116.634 55.5716 115.942 53.7447 114.7 52.3894Z" fill="#003E52"/>
<path d="M19.9253 44.5007C21.5023 44.5014 23.0634 44.8398 24.5171 45.4962C25.9709 46.1525 27.2881 47.1135 28.3917 48.323C30.6337 50.7592 31.8888 54.0475 31.8839 57.4723H31.8733V57.5594C31.8235 61.428 30.5691 65.1673 28.3101 68.1816C27.3196 69.6246 26.0442 70.8145 24.5752 71.6664C23.1063 72.5182 21.4801 73.0109 19.8131 73.1091V73.0978H19.7696C18.0953 72.9916 16.4653 72.4784 15.0026 71.5971C13.5399 70.7158 12.2827 69.4893 11.3259 68.0102C9.17481 64.9797 7.99625 61.2824 7.96681 57.4722C7.96209 54.0475 9.21715 50.7593 11.4589 48.323C12.5627 47.1137 13.8799 46.1528 15.3336 45.4965C16.7873 44.8402 18.3483 44.5016 19.9253 44.5007ZM24.5404 52.3893C23.9374 51.7328 23.2189 51.2115 22.4267 50.8557C21.6344 50.4999 20.7842 50.3167 19.9255 50.3167C19.0667 50.3167 18.2165 50.4999 17.4243 50.8557C16.632 51.2115 15.9135 51.7328 15.3105 52.3893C14.0694 53.7447 13.377 55.5715 13.384 57.4723C13.404 60.0093 14.189 62.4712 15.6215 64.4891C16.0816 65.2579 16.6935 65.9087 17.414 66.3953C18.1345 66.8818 18.9458 67.1923 19.7905 67.3045H19.8132V67.2932C20.6705 67.1877 21.4967 66.8859 22.2361 66.4082C22.9754 65.9304 23.6107 65.2879 24.0989 64.5239C25.5956 62.545 26.4328 60.0854 26.4772 57.5367V57.4723H26.4667C26.4738 55.5716 25.7815 53.7447 24.5404 52.3893Z" fill="#003E52"/>
<path d="M121.265 77.8228L112.434 94.5407L111.835 95.6771C116.453 95.3367 120.884 93.5791 124.599 90.6131C124.678 87.8952 124.399 85.179 123.771 82.5449C123.274 80.7896 122.418 79.1761 121.265 77.8228ZM110.141 87.126L118.219 71.8324L119.731 68.9699L122.187 70.9463C125.401 73.3543 127.775 76.844 128.934 80.8634C129.805 84.502 130.164 88.2599 130 92.0125V93.3702L129.026 94.239C123.7 98.9734 116.998 101.556 110.083 101.538V101.549C103.169 101.564 96.4677 98.9774 91.1446 94.239L90.1608 93.3596V92.0125C89.9933 88.1736 90.3838 84.33 91.3183 80.6201C92.5458 76.529 95.0351 73.0091 98.3757 70.6408L100.864 68.7388L102.322 71.6285L110.141 87.126ZM108.3 95.6634L107.705 94.4839L99.1513 77.5302C97.9164 78.8967 96.9951 80.5535 96.4605 82.369C95.7959 85.0596 95.5004 87.8399 95.5833 90.6221C99.2871 93.5718 103.7 95.3212 108.3 95.6634Z" fill="#003E52"/>
<path d="M31.1044 77.8228L22.2745 94.5407L21.6743 95.6771C26.293 95.3368 30.7236 93.5791 34.4388 90.6131C34.5183 87.8952 34.2394 85.1789 33.6105 82.5449C33.1142 80.7896 32.2578 79.1761 31.1044 77.8228ZM19.9811 87.126L28.0588 71.8324L29.5709 68.9699L32.0265 70.9463C35.2402 73.3542 37.6144 76.844 38.7733 80.8634C39.6444 84.5019 40.0037 88.2599 39.8394 92.0125V93.3702L38.866 94.239C33.5398 98.9735 26.8376 101.556 19.9229 101.538V101.549C13.0084 101.564 6.30754 98.9775 0.984653 94.239L0.000689998 93.3596V92.0125C-0.166929 88.1736 0.223628 84.33 1.1583 80.6201C2.38563 76.529 4.87477 73.0091 8.21532 70.6408L10.7042 68.7388L12.1622 71.6285L19.9811 87.126ZM18.1401 95.6634L17.5449 94.4839L8.99133 77.5302C7.75629 78.8967 6.83485 80.5534 6.30011 82.369C5.63562 85.0596 5.3402 87.8399 5.42317 90.6221C9.12684 93.5718 13.5397 95.3212 18.1401 95.6634Z" fill="#003E52"/>
</g>
<defs>
<clipPath id="clip0_724_60">
<rect width="130" height="130" fill="white"/>
</clipPath>
</defs>
</svg>
